<svg xmlns="http://www.w3.org/2000/svg" viewBox="0 0 1600 900" role="img" aria-label="Robotics and biosignal research abstract banner">
  <defs>
    <linearGradient id="bg" x1="0" y1="0" x2="1" y2="1">
      <stop offset="0" stop-color="#eef2ff"/>
      <stop offset="1" stop-color="#e0e7ff"/>
    </linearGradient>
    <linearGradient id="stroke" x1="0" y1="0" x2="1" y2="1">
      <stop offset="0" stop-color="#2563eb"/>
      <stop offset="1" stop-color="#7c3aed"/>
    </linearGradient>
  </defs>
  <rect width="1600" height="900" fill="url(#bg)"/>
  <g fill="none" stroke="url(#stroke)" stroke-width="6" opacity="0.6">
    <path d="M0,600 C200,500 300,700 500,620 C700,540 820,680 1000,620 C1200,560 1400,640 1600,560"/>
    <path d="M0,520 C180,440 340,560 520,500 C760,420 840,600 1040,540 C1240,480 1400,560 1600,480" opacity="0.5"/>
  </g>
  <g transform="translate(1040,260)" fill="#111827" opacity="0.08">
    <rect x="0" y="0" width="360" height="220" rx="24"/>
    <rect x="40" y="40" width="280" height="40" rx="8"/>
    <rect x="40" y="100" width="200" height="40" rx="8"/>
    <rect x="40" y="160" width="240" height="20" rx="6"/>
  </g>
</svg>