<svg xmlns="http://www.w3.org/2000/svg" viewBox="0 0 280 280" role="img" aria-label="Robotics & Machine Vision Lab logo">
  <defs>
    <linearGradient id="g" x1="0" y1="0" x2="1" y2="1">
      <stop offset="0" stop-color="#2563eb"/>
      <stop offset="1" stop-color="#7c3aed"/>
    </linearGradient>
  </defs>
  <rect width="280" height="280" rx="36" fill="url(#g)"/>
  <!-- Robot arm -->
  <g transform="translate(22,40)" fill="none" stroke="white" stroke-width="6" stroke-linecap="round" stroke-linejoin="round">
    <circle cx="52" cy="160" r="14"/>
    <path d="M52 146 L52 116 L94 98 L120 64"/>
    <circle cx="120" cy="64" r="10"/>
    <path d="M94 98 L128 116 L168 94"/>
    <circle cx="168" cy="94" r="10"/>
  </g>
  <!-- Eye for machine vision -->
  <g transform="translate(118,154)">
    <ellipse cx="70" cy="28" rx="48" ry="28" fill="none" stroke="white" stroke-width="6"/>
    <circle cx="70" cy="28" r="14" fill="white"/>
  </g>
  <!-- Biosignal waveform -->
  <path d="M30 214 Q 46 210 56 214 T 82 214 T 108 214 T 134 214 T 160 214 T 186 214 T 212 214 T 238 214"
        fill="none" stroke="white" stroke-width="6" opacity="0.9"/>
  <!-- Monogram -->
  <text x="30" y="86" font-family="Inter, Arial, sans-serif" font-size="28" font-weight="700" fill="white">RMVL</text>
</svg>